<svg fill="none" height="10" width="47" xmlns="http://www.w3.org/2000/svg"><path d="M2.876 5.56l1.825 1.827L6.527 5.56l1.062 1.06L4.7 9.511 1.813 6.624l1.063-1.063zm2.903-.749L4.7 5.889 3.624 4.81l.19-.19.092-.092.797-.797L5.779 4.81zm1.497 0L8.34 3.749 9.4 4.81 8.34 5.873zm-7.275 0l1.063-1.062 1.06 1.062-1.06 1.062L0 4.811zm2.876-.75l1.824-1.826 1.826 1.827L7.589 3 4.7.111 1.813 3l1.064 1.06zm8.18-1.672h2.313c.573 0 1.007.148 1.3.445a1.156 1.156 0 0 1 .341.84v.015a1.157 1.157 0 0 1-.194.674 1.09 1.09 0 0 1-.209.232 1.335 1.335 0 0 1-.252.17c.26.09.494.244.681.446.166.188.249.447.249.78v.014c.004.207-.041.412-.132.598a1.167 1.167 0 0 1-.376.427c-.18.12-.38.207-.59.256a3.17 3.17 0 0 1-.764.086h-2.367zm2.079 2.015c.2.01.399-.034.577-.125a.432.432 0 0 0 .209-.403v-.013a.442.442 0 0 0-.185-.382.915.915 0 0 0-.534-.131h-1.077v1.054zm.292 2.008a1.05 1.05 0 0 0 .571-.132.452.452 0 0 0 .21-.409v-.016a.47.47 0 0 0-.193-.394c-.129-.099-.334-.149-.62-.149h-1.27v1.099zm3.236-4.023h1.092v4.984H16.66l.005-4.984zm2.755 0h1.01l2.34 3.067V2.39h1.084v4.984h-.934l-2.416-3.168v3.168H19.42V2.389zm7.752-.035h1.009l2.135 5.019h-1.149l-.455-1.118h-2.103l-.457 1.118h-1.117l2.137-5.02zm1.149 2.933l-.664-1.616-.66 1.616zm3.182-2.898h1.01l2.336 3.067V2.39h1.081v4.984h-.933l-2.41-3.168v3.168h-1.084zm8.375 5.072a2.583 2.583 0 0 1-1.018-.199 2.469 2.469 0 0 1-1.346-1.358A2.648 2.648 0 0 1 37.32 4.9v-.015a2.587 2.587 0 0 1 .731-1.82 2.47 2.47 0 0 1 .813-.552c.334-.14.692-.21 1.054-.209a3.4 3.4 0 0 1 .637.058c.179.034.354.086.522.156.154.065.3.146.435.243.132.093.257.198.371.313l-.697.804a2.686 2.686 0 0 0-.593-.418 1.534 1.534 0 0 0-.681-.148 1.38 1.38 0 0 0-1.04.457c-.13.144-.231.312-.3.495a1.71 1.71 0 0 0-.104.601v.015c0 .205.035.409.105.601.068.183.168.351.296.498a1.366 1.366 0 0 0 1.045.463c.25.008.497-.045.721-.156a2.85 2.85 0 0 0 .588-.428l.698.705a3.525 3.525 0 0 1-.399.371 2.31 2.31 0 0 1-.99.46 3.17 3.17 0 0 1-.655.067zm3.335-5.072h3.752v.975H44.29v1.011h2.353v.976h-2.35v1.044H47v.976h-3.786z" fill="#f3ba2f"/></svg>