<svg fill="none" height="12" width="49" xmlns="http://www.w3.org/2000/svg"><path d="M15.012 1.312l-.746 3.001a2.912 2.912 0 0 1 2.005 0c.707.28 1.285 1.096 1.285 2.411 0 1.77-1.125 3.537-3.803 3.935-1.594.236-2.774-.464-2.774-.464s.555-2.162.633-2.525l1.482-6.07 1.918-.287zm-1.655 6.534c-.039.2-.326 1.297-.326 1.297s.68.15 1.094-.004c1.19-.442 1.602-1.404 1.643-2.354.031-.699-.272-1.112-.89-1.174-.256-.025-.56 0-1.008.269zm4.473 2.818l1.213-6.123h1.881l-1.214 6.123zm2.378-6.887c-.522 0-.9-.35-.9-.876 0-.614.508-1.029 1.083-1.029.56 0 .953.351.953.89-.002.64-.511 1.015-1.11 1.015zm4.435-1.264L24.1 4.388h2.035l-.31 1.377h-2.001l-.488 1.95c-.052.237-.17.784-.183 1.077-.003.052.16.432.649.454.969.045 1.195-.131 1.352-.157l.093 1.324c-.248.09-1.227.337-2.22.247-1.13-.102-1.603-.632-1.67-1.327a3.916 3.916 0 0 1 .079-1.216l.547-2.352.368-1.377.395-1.547zm5.837 7.86c-.405.188-1.058.326-1.815.326-1.58 0-2.689-.926-2.689-2.504 0-2.179 1.736-3.881 4.164-3.881.444-.004.885.064 1.306.2l-.47 1.39a2.241 2.241 0 0 0-.862-.15c-1.331 0-2.167 1.089-2.167 2.24 0 .84.56 1.265 1.254 1.265.435 0 .866-.085 1.266-.25zm7.571-3.587c0 2.241-1.605 3.882-3.812 3.882-1.618 0-2.704-1.015-2.704-2.542 0-2.116 1.539-3.869 3.812-3.869 1.712 0 2.704 1.127 2.704 2.53zm-4.569 1.315c0 .715.366 1.19 1.032 1.19 1.005 0 1.592-1.453 1.592-2.492 0-.564-.26-1.163-1.005-1.163-1.083-.002-1.619 1.513-1.619 2.465zm5.13 2.563l1.213-6.123h1.88l-1.213 6.123zm2.378-6.887c-.522 0-.9-.35-.9-.876 0-.614.509-1.029 1.083-1.029.56 0 .953.351.953.89-.002.64-.511 1.015-1.111 1.015zm1.069 6.887l.81-4.132c.169-.776.224-1.232.315-1.783.495-.185 1.205-.327 1.977-.457a6.274 6.274 0 0 1 1.88 0c1.033.155 1.623.725 1.623 1.789a7.25 7.25 0 0 1-.104 1.028l-.705 3.555h-1.893l.679-3.393a3.84 3.84 0 0 0 .065-.676c0-.438-.162-.581-.395-.64-.43-.111-1.46 0-1.46 0s-.243 1.296-.377 1.992l-.535 2.717z" fill="#4d4d4d"/><path d="M5.898 10.682c2.69 0 4.872-2.092 4.872-4.673 0-2.58-2.182-4.672-4.872-4.672-2.691 0-4.872 2.092-4.872 4.672 0 2.581 2.18 4.673 4.872 4.673z" fill="#f7931a"/><path d="M7.448 6.058c.088-.022.172-.056.25-.1.2-.149.28-.262.344-.52a.887.887 0 0 0-.058-.632c-.21-.447-.986-.622-.986-.622l.211-.863-.572-.125-.2.817a1.569 1.569 0 0 0-.088-.02l-.313-.062.203-.824-.573-.13-.202.822c-.404-.09-.927-.211-1.076-.255l-.134.543c.192.053.513.148.543.162.05.026.119.107.116.162-.007.134-.06.21-.163.642l-.32 1.264-.158.546c-.054.208-.587-.051-.612-.023-.017.02-.268.582-.268.582l.553.15.495.12-.19.835.572.138.19-.837.386.08-.192.835.572.138.197-.854c.368.061.904.079 1.135.013.522-.15.683-.447.793-.903.122-.51-.063-.86-.64-1.077a.607.607 0 0 0 .185-.002zm-.647.967c-.065.268-.357.313-.449.324-.202.028-.52-.014-.786-.073-.14-.03-.4-.11-.4-.11l.289-1.069c.098.016.291.028.367.045.598.134 1.11.338.98.885v-.002zm.187-1.727a.508.508 0 0 1-.134.279c-.181.168-.613.115-.956.04a2.176 2.176 0 0 1-.286-.096l.15-.613c.038-.162.041-.203.095-.393.133.016.266.04.396.073.437.098.834.307.735.71z" fill="#fff"/></svg>