<svg fill="none" height="25" width="35" xmlns="http://www.w3.org/2000/svg"><clipPath id="a"><path d="M0 0h35v24.122H0z" transform="translate(0 .111)"/></clipPath><g clip-path="url(#a)"><path d="M3.159 22.504a.143.143 0 0 1-.142.14H.285c.069.678.577 1.297 1.29 1.297.49 0 .852-.188 1.124-.58.04-.053.098-.088.175-.055a.131.131 0 0 1 .077.098.14.14 0 0 1-.018.096c-.275.48-.822.717-1.358.717-.92 0-1.575-.826-1.575-1.71 0-.883.656-1.709 1.575-1.709s1.583.823 1.584 1.704zm-.292-.135c-.06-.678-.576-1.297-1.29-1.297-.715 0-1.223.62-1.291 1.297h2.58zm3.608-1.504a.138.138 0 0 1 .136.137.135.135 0 0 1-.084.128.13.13 0 0 1-.052.01h-.733v2.886a.137.137 0 0 1-.137.137.136.136 0 0 1-.136-.137V21.14h-.704a.134.134 0 0 1-.127-.084.141.141 0 0 1 .127-.19h.704v-1.057c0-.066.045-.128.11-.139.09-.014.163.05.163.136v1.06zm4.467 1.396v1.749a.14.14 0 0 1-.137.137.132.132 0 0 1-.136-.137v-1.748c0-.59-.332-1.18-.987-1.18-.84 0-1.203.738-1.155 1.494 0 .02.01.108.01.117v1.313c0 .066-.045.128-.11.138-.092.015-.163-.048-.163-.135v-5.744a.137.137 0 0 1 .136-.137.136.136 0 0 1 .136.137v3.25c.235-.422.656-.706 1.144-.706.802 0 1.262.706 1.262 1.453zm4.898.243a.143.143 0 0 1-.142.14h-2.734c.069.678.576 1.297 1.29 1.297.49 0 .852-.188 1.124-.58.04-.053.098-.088.175-.055a.131.131 0 0 1 .077.098.139.139 0 0 1-.018.096c-.275.48-.822.717-1.359.717-.918 0-1.574-.826-1.574-1.71 0-.883.656-1.709 1.574-1.709.92 0 1.585.823 1.587 1.704zm-.294-.135c-.06-.678-.576-1.297-1.29-1.297-.715 0-1.223.62-1.291 1.297zm3.647-1.376c0 .088-.048.137-.127.148-.802.117-1.162.775-1.162 1.542v1.312a.141.141 0 0 1-.11.14c-.092.013-.163-.05-.163-.136v-2.99c0-.067.044-.128.11-.139.09-.014.163.049.163.135v.61c.224-.383.674-.747 1.143-.747.068-.002.147.049.147.127v-.002zm4.488 1.511a.143.143 0 0 1-.142.14h-2.733c.068.679.576 1.297 1.29 1.297.489 0 .851-.188 1.124-.579.04-.054.098-.088.174-.056a.131.131 0 0 1 .078.098.14.14 0 0 1-.018.096c-.275.481-.823.717-1.359.717-.919 0-1.574-.825-1.574-1.709 0-.883.655-1.71 1.574-1.71.92 0 1.583.823 1.585 1.705zm-.294-.135c-.059-.678-.576-1.296-1.29-1.296s-1.222.619-1.29 1.296zm4.703-1.341v2.998a.14.14 0 0 1-.136.137.132.132 0 0 1-.137-.137v-.57c-.224.453-.626.776-1.134.776-.811 0-1.262-.707-1.262-1.453V21.02a.137.137 0 0 1 .137-.137.136.136 0 0 1 .136.137v1.759c0 .59.332 1.179.987 1.179.92 0 1.134-.864 1.134-1.818v-1.12c0-.079.08-.16.176-.131a.147.147 0 0 1 .1.139zM35 22.25v1.759a.14.14 0 0 1-.19.127.132.132 0 0 1-.073-.074.135.135 0 0 1-.01-.053V22.25c0-.59-.332-1.167-.987-1.167-.822 0-1.134.883-1.134 1.57v1.356a.14.14 0 0 1-.19.127.133.133 0 0 1-.083-.127V22.25c0-.59-.332-1.167-.987-1.167-.831 0-1.174.658-1.144 1.533 0 .02.01.06 0 .069v1.322a.138.138 0 0 1-.112.139c-.091.014-.163-.049-.163-.135v-3.003c0-.067.045-.128.11-.139.091-.014.163.049.163.135v.502c.235-.423.655-.698 1.143-.698.557 0 .988.353 1.163.874.224-.51.664-.874 1.232-.874.802 0 1.261.696 1.261 1.442" fill="#3c3c3b"/><g fill="#010101"><path d="M17.502 5.636l-4.567 2.086 4.566 2.71 4.565-2.71z" opacity=".6"/><path d="M12.935 7.722l4.566 2.71V.112z" opacity=".45"/><path d="M17.502.111v10.321l4.565-2.71-4.565-7.61z" opacity=".8"/><path d="M12.935 8.591l4.566 6.462v-3.752z" opacity=".45"/><path d="M17.502 11.301v3.752l4.568-6.462z" opacity=".8"/></g></g></svg>